<?xml version="1.0" encoding="UTF-8" standalone="no"?>
<!-- Created with Inkscape (http://www.inkscape.org/) -->

<svg
   width="135.72498mm"
   height="39.279118mm"
   viewBox="0 0 135.72498 39.279118"
   version="1.1"
   id="svg5"
   inkscape:version="1.1.2 (0a00cf5339, 2022-02-04)"
   sodipodi:docname="NathCilios.svg"
   xmlns:inkscape="http://www.inkscape.org/namespaces/inkscape"
   xmlns:sodipodi="http://sodipodi.sourceforge.net/DTD/sodipodi-0.dtd"
   xmlns="http://www.w3.org/2000/svg"
   xmlns:svg="http://www.w3.org/2000/svg">
  <sodipodi:namedview
     id="namedview7"
     pagecolor="#ffffff"
     bordercolor="#666666"
     borderopacity="1.0"
     inkscape:pageshadow="2"
     inkscape:pageopacity="0.0"
     inkscape:pagecheckerboard="0"
     inkscape:document-units="mm"
     showgrid="false"
     inkscape:zoom="2.1266375"
     inkscape:cx="286.13245"
     inkscape:cy="76.881931"
     inkscape:window-width="1920"
     inkscape:window-height="1016"
     inkscape:window-x="0"
     inkscape:window-y="27"
     inkscape:window-maximized="1"
     inkscape:current-layer="layer2"
     showguides="false" />
  <defs
     id="defs2">
    <rect
       x="32.969933"
       y="37.117535"
       width="529.57306"
       height="265.86246"
       id="rect3729" />
    <rect
       x="32.969933"
       y="37.117535"
       width="529.57306"
       height="265.86246"
       id="rect3729-3" />
    <rect
       x="32.969933"
       y="37.117535"
       width="529.57306"
       height="265.86246"
       id="rect3729-3-7" />
  </defs>
  <g
     inkscape:label="Camada 1"
     inkscape:groupmode="layer"
     id="layer1"
     transform="translate(-31.815166,-15.275966)" />
  <g
     inkscape:groupmode="layer"
     id="layer2"
     inkscape:label="Fundo"
     transform="translate(-31.815166,-15.275966)">
    <path
       id="text3727-6"
       style="font-style:normal;font-weight:normal;font-size:192px;line-height:1.25;font-family:sans-serif;white-space:pre;shape-inside:url(#rect3729-3-7);fill:#333333;fill-opacity:1;stroke:none;stroke-width:0.264583"
       d="m 90.192855,15.281543 c -2.141805,0.100783 -4.230629,0.85487 -5.986431,2.076777 -2.298173,1.583676 -4.067648,3.805627 -5.559634,6.137193 -2.162085,3.392541 -3.738213,7.106044 -5.585605,10.669387 -1.596583,3.119614 -3.138847,6.275747 -4.998556,9.250523 -1.322295,2.104258 -2.841067,4.115549 -4.733766,5.742088 1.290936,-2.691664 2.157335,-5.569667 2.781927,-8.483221 0.607221,-2.840413 0.934894,-5.734886 1.068279,-8.634854 0.134641,-2.319946 0.276053,-4.642996 0.59655,-6.946088 0.224944,-1.514565 0.523637,-3.096181 1.177735,-4.514339 0.08472,-0.181563 0.175681,-0.360355 0.274889,-0.534448 0.906195,-0.215749 1.823685,-0.483664 2.61121,-0.995804 0.437451,-0.281769 0.830164,-0.781327 0.714348,-1.331332 -0.09373,-0.553965 -0.637008,-0.925171 -1.177951,-0.93959 -0.874408,-0.04713 -1.712272,0.281832 -2.513367,0.592503 -0.762931,0.302415 -1.492083,0.687243 -2.234949,1.028986 -1.91734,0.279745 -3.854124,0.398016 -5.789477,0.460812 -2.162093,0.06459 -4.374624,0.03377 -6.55628,0.02642 -2.916293,0.04039 -5.877484,0.434671 -8.574919,1.592932 -1.976615,0.848535 -3.802242,2.191462 -4.929093,4.051933 -1.026067,1.670513 -1.434079,3.682066 -1.285015,5.626613 0.103337,1.224843 0.636169,2.443893 1.605798,3.226803 1.155354,0.953651 2.697703,1.268195 4.162993,1.276061 1.70208,-0.0026 3.408865,-0.355782 4.964234,-1.049261 0.967095,-0.433863 1.794415,-1.125296 2.533706,-1.874252 1.100283,-1.129366 1.848551,-2.614615 2.003634,-4.191183 0.123796,-1.070477 -0.122743,-2.145146 -0.441719,-3.161186 -0.173202,-0.473765 -0.332121,-1.00026 -0.731475,-1.334958 -0.307652,-0.262107 -0.818084,-0.136175 -0.983115,0.228846 -0.192477,0.432602 -0.169273,0.922235 -0.25205,1.381816 -0.218969,1.705602 -0.541634,3.462975 -1.495751,4.928536 -0.881304,1.35844 -2.19789,2.461673 -3.752926,2.95428 -1.210437,0.386244 -2.591556,0.47997 -3.763974,-0.08112 -0.809517,-0.377492 -1.383394,-1.17189 -1.531021,-2.04783 -0.1534,-0.880885 -0.05134,-1.787927 0.130445,-2.656684 0.365777,-1.668552 1.360872,-3.167944 2.703211,-4.214215 1.78131,-1.404363 4.004704,-2.117015 6.219888,-2.467863 0.301051,-0.04758 0.592148,-0.08479 0.910418,-0.122275 0.221686,-0.02453 0.516731,-0.05319 0.768532,-0.07216 1.052918,-0.08574 2.075418,-0.07763 3.137586,-0.0839 2.526196,-0.0095 5.055126,0.04415 7.578452,-0.102835 -1.943809,1.778034 -3.421433,3.995539 -4.714425,6.273453 -1.888535,3.351906 -3.37498,6.909205 -4.791657,10.480082 -0.888476,2.182852 -1.848128,4.340675 -2.983079,6.407841 -0.0627,0.112731 -0.173522,0.307302 -0.254659,0.451392 -0.309504,0.547349 -0.610876,1.040903 -0.957329,1.575162 -1.310875,2.006667 -2.902525,3.905234 -4.980053,5.150681 -1.611391,0.964515 -3.514086,1.477833 -5.394313,1.34811 -1.464998,-0.107791 -2.941629,-0.74183 -3.85051,-1.927735 -0.634405,-0.821127 -0.95067,-1.848006 -1.07771,-2.866565 -0.122325,-1.042781 0.174749,-2.13573 0.866529,-2.934266 0.594362,-0.717632 1.293423,-1.371743 1.716859,-2.213073 0.287548,-0.553273 0.265819,-1.256961 -0.105769,-1.766498 -0.224884,-0.366504 -0.595507,-0.655469 -1.034476,-0.690357 -0.917412,-0.09255 -1.763366,0.47058 -2.328182,1.148623 -0.914772,1.109101 -1.306245,2.547204 -1.488491,3.948141 -0.207299,1.697496 0.07437,3.438523 0.717201,5.017069 0.689423,1.654053 2.050292,2.99634 3.689362,3.709506 1.810224,0.812861 3.87249,0.911707 5.804313,0.546595 2.244313,-0.396992 4.33657,-1.477071 6.047219,-2.970895 2.265341,-1.970209 3.928925,-4.525664 5.309433,-7.166832 2.04497,-3.924668 3.457348,-8.13112 5.236385,-12.174927 1.061553,-2.406904 2.170493,-4.81349 3.657507,-6.992686 0.851914,-1.244838 1.871099,-2.380223 3.058348,-3.314126 -1.216869,2.355075 -1.892736,4.950736 -2.316572,7.555926 -0.28774,1.846443 -0.443828,3.710374 -0.596223,5.5719 -0.150974,1.864612 -0.244226,3.757975 -0.382093,5.607982 -0.06763,0.884512 -0.155501,1.803209 -0.266134,2.660819 -0.178916,1.39042 -0.440174,2.803162 -0.750858,4.148584 -0.244493,1.063768 -0.526201,2.135209 -0.829665,3.202178 -0.137453,0.527122 -0.324193,1.042266 -0.443825,1.573139 -0.08398,0.44433 0.279257,0.875781 0.721929,0.908764 0.448937,0.08268 0.863417,-0.14143 1.269849,-0.296487 2.310141,-0.973695 4.209275,-2.701168 5.822053,-4.585216 2.273612,-2.684208 4.052263,-5.742222 5.681189,-8.84783 1.585828,-3.050728 3.014271,-6.180399 4.613222,-9.224716 1.381067,-2.63247 2.817498,-5.251749 4.588161,-7.646578 1.192331,-1.581467 2.558536,-3.109611 4.330036,-4.050478 1.151826,-0.603117 2.478627,-0.904309 3.77703,-0.771529 0.38278,0.04163 0.790109,0.224186 0.927341,0.612447 0.209896,0.532673 0.330393,1.158682 0.824491,1.515073 0.558044,0.408109 1.303269,0.40047 1.954919,0.285252 0.631516,-0.139046 1.054701,-0.771903 1.042829,-1.401981 0.0011,-1.022667 -0.696063,-1.914479 -1.528588,-2.443262 -1.076002,-0.694067 -2.392923,-0.866471 -3.648355,-0.825789 z m 21.310845,4.25452 c -1.36759,0.02051 -2.60882,0.746287 -3.62114,1.613668 -1.613,1.396068 -2.84169,3.171034 -3.93861,4.984922 -0.43546,0.727503 -0.84606,1.469689 -1.24075,2.219994 -0.33077,-0.02646 -0.72315,-0.06883 -1.01324,-0.104838 -0.60376,-0.0773 -1.23378,-0.178208 -1.804262,-0.288163 -0.263321,0.01961 -0.169148,-0.141944 -0.07785,-0.302028 0.459462,-0.939887 0.925362,-1.940578 1.482332,-2.854904 0.33758,-0.588333 0.74738,-1.204121 0.73348,-1.908649 -0.009,-0.532138 -0.44578,-0.962305 -0.94448,-1.082929 -0.8124,-0.235357 -1.760297,-0.312861 -2.498723,0.176009 -0.724466,0.473282 -1.047448,1.314056 -1.438344,2.046745 -0.488286,0.970794 -0.940091,1.95928 -1.411094,2.938479 -2.164342,-0.542592 -4.333716,-1.156804 -6.574398,-1.269556 -1.662274,-0.106299 -3.399449,-0.125193 -4.963399,0.529551 -0.796938,0.341974 -1.541134,0.81866 -2.176324,1.409189 -0.625782,0.599318 -1.011428,1.527828 -0.749597,2.386444 0.124579,0.483957 0.472972,0.927256 0.974101,1.050583 0.806304,0.241581 1.731923,-0.247258 2.003496,-1.040765 0.154472,-0.442269 0.127733,-0.93572 0.360701,-1.354439 0.330542,-0.687329 1.101755,-0.98452 1.804702,-1.126363 1.980158,-0.405767 4.012136,-0.04716 5.951749,0.402156 0.87716,0.20401 1.733333,0.430279 2.609842,0.650309 -1.534961,3.41558 -2.938936,6.895846 -4.081684,10.463593 -0.148524,0.414835 -0.414579,0.778778 -0.618535,1.168739 -0.778539,1.320162 -1.572118,2.644492 -2.566924,3.815749 -0.431136,0.461844 -0.869776,0.961978 -1.461006,1.218087 -0.150206,0.0443 -0.105682,-0.23272 -0.133191,-0.334436 -0.02527,-1.391666 0.521785,-2.710342 1.114642,-3.942276 0.486434,-1.001861 1.083379,-1.943341 1.687579,-2.876762 0.40441,-0.695865 0.824261,-1.434526 0.87467,-2.25543 0.04371,-0.518943 -0.263213,-1.060635 -0.773327,-1.218356 -0.853866,-0.230058 -1.828911,-0.290912 -2.625164,0.158131 -0.345157,0.198242 -0.63218,0.48681 -0.854726,0.814938 -0.525923,-0.862965 -1.469033,-1.46685 -2.483802,-1.530903 -1.57661,-0.193712 -3.191547,0.325189 -4.433361,1.297649 -1.665394,1.293683 -2.781348,3.205263 -3.323029,5.225515 -0.334799,1.265936 -0.310333,2.617394 -0.0083,3.887208 0.255855,1.032907 0.773885,2.093839 1.732788,2.63733 0.889754,0.512165 2.018842,0.400233 2.89932,-0.07413 1.075598,-0.56688 1.901645,-1.4991 2.611893,-2.466477 0.128706,0.92601 0.532508,1.875607 1.338506,2.405107 0.856493,0.584915 2.000728,0.54401 2.921182,0.13479 1.247164,-0.536269 2.146753,-1.609231 2.931083,-2.678378 0.04239,-0.0024 0.01177,0.232318 0.04191,0.311883 0.139771,1.146644 0.877511,2.243035 1.977652,2.659296 0.995105,0.401277 2.165268,0.162851 3.000809,-0.484521 0.275386,-0.207219 0.519691,-0.452409 0.743106,-0.714169 0.0095,0.613516 0.355983,1.271746 0.97927,1.443839 0.418481,0.09962 0.861658,0.06195 1.284677,0.0036 0.62408,-0.09337 1.143574,-0.533104 1.429313,-1.083175 0.483269,-0.900848 0.767022,-1.890337 1.131667,-2.84162 0.39133,-1.056301 0.74456,-2.130292 1.19225,-3.163361 0.78297,-1.217138 1.84608,-2.245254 3.04158,-3.054762 0.52566,-0.33183 1.08418,-0.684398 1.71682,-0.743755 0.0992,-0.01527 0.20934,0.02299 0.19792,0.143661 0.0449,0.54156 -0.25998,1.028907 -0.49188,1.495986 -0.83561,1.535547 -1.89405,2.993149 -2.31614,4.715539 -0.29132,1.203174 -0.11306,2.592549 0.73427,3.538731 0.71977,0.82782 1.91331,1.149151 2.96724,0.892506 1.10825,-0.240075 1.97638,-1.03853 2.7087,-1.859905 0.45874,-0.517707 0.878,-1.06948 1.27141,-1.638075 0.27607,1.254178 0.99254,2.460379 2.13062,3.106272 1.13814,0.639622 2.55737,0.82374 3.79053,0.351406 1.31092,-0.491712 2.3472,-1.501219 3.21362,-2.570747 0.10661,-0.181136 0.10239,0.1895 0.16525,0.26933 0.32658,0.991859 1.0709,1.912657 2.11056,2.190618 1.03176,0.294693 2.13549,-0.111258 2.93467,-0.775883 0.63843,-0.513625 1.14991,-1.163481 1.62226,-1.827887 0.12334,1.043993 0.62448,2.082403 1.51876,2.674771 0.85018,0.563888 1.94273,0.837416 2.93851,0.532005 1.24948,-0.367617 2.23137,-1.296786 3.06578,-2.25748 0.17551,-0.206733 0.34459,-0.418537 0.51108,-0.632521 0.30886,1.0223 1.05413,1.983703 2.11544,2.279682 1.03764,0.308223 2.15497,-0.09792 2.96009,-0.76857 0.71374,-0.57504 1.26808,-1.316516 1.78813,-2.064049 0.23096,1.029533 0.71305,2.087668 1.62541,2.680994 1.09296,0.648536 2.47615,0.67157 3.65496,0.249557 1.32418,-0.464052 2.43647,-1.381863 3.37078,-2.407586 1.18978,0.0522 2.28559,-0.578631 3.15681,-1.335463 0.90017,-0.775277 1.62358,-1.733331 2.224,-2.753691 0.37083,-0.574844 0.70482,-1.171011 1.01862,-1.778656 0.0374,0.0013 0.0326,0.222909 0.0607,0.310203 0.15006,0.929785 0.54491,1.812242 1.11859,2.55729 0.53277,0.789371 0.69755,1.909374 0.16653,2.740901 -0.3977,0.606475 -1.19114,0.774398 -1.87069,0.716986 -0.32874,-0.03872 -0.7822,-0.144909 -0.84389,-0.53095 -0.0932,-0.631695 0.56139,-1.118372 0.42995,-1.753383 -0.085,-0.406257 -0.54278,-0.644612 -0.93069,-0.519864 -0.62198,0.191045 -1.0617,0.739963 -1.3563,1.295501 -0.62554,1.198832 -0.28494,2.807282 0.77442,3.6489 0.91638,0.733227 2.13514,1.007113 3.2901,0.945539 1.3974,-0.0765 2.66999,-0.802791 3.68842,-1.724485 1.06963,-0.965192 2.00582,-2.071185 2.8199,-3.25849 1.01896,-1.473803 1.98015,-2.993546 2.78273,-4.59718 0.17368,-0.38486 0.10159,-0.915474 -0.29249,-1.134295 -0.43091,-0.267872 -1.07108,-0.07042 -1.24383,0.416121 -0.89747,1.690793 -1.85993,3.357512 -3.03291,4.874511 -0.24422,-1.346607 -1.07527,-2.466784 -1.70989,-3.647035 -0.42148,-0.773081 -0.69041,-1.68256 -0.47861,-2.560855 0.28875,-1.166928 0.8749,-2.279824 1.74667,-3.115571 0.42507,-0.267584 0.852,-0.69006 0.84129,-1.229384 -0.0251,-0.454062 -0.43417,-0.808535 -0.87784,-0.82931 -0.55181,-0.04439 -1.06368,0.220443 -1.56232,0.421584 -0.79029,0.348541 -1.55363,0.798626 -2.12742,1.455687 -1.12457,1.169176 -1.87535,2.625646 -2.57464,4.073028 -0.59131,1.235723 -1.30532,2.41277 -2.13784,3.500707 -0.40506,0.507347 -0.84831,0.98996 -1.36322,1.388031 0.69778,-1.412428 1.095,-3.041031 0.79168,-4.61109 -0.16051,-0.828857 -0.58447,-1.605028 -1.22506,-2.159666 -0.69977,-0.679519 -1.61684,-1.15928 -2.60106,-1.216872 -1.39571,-0.128439 -2.76534,0.434152 -3.86204,1.264864 -1.13926,0.873999 -2.09969,1.995924 -2.74655,3.280617 -0.30285,0.598156 -0.51632,1.2388 -0.68459,1.884627 -0.73095,1.191694 -1.44346,2.406991 -2.35092,3.47582 -0.34676,0.372399 -0.73055,0.771163 -1.23777,0.903309 -0.0781,-0.06732 -0.0343,-0.251201 -0.0323,-0.361664 0.1079,-0.732444 0.43332,-1.427753 0.70374,-2.091516 0.74159,-1.73411 1.62538,-3.402703 2.53543,-5.052382 0.3306,-0.667817 0.70569,-1.3764 0.65784,-2.144057 -0.0279,-0.503957 -0.42194,-0.942861 -0.91623,-1.036111 -0.96527,-0.183769 -2.04955,0.02331 -2.76504,0.731597 -0.53873,0.505571 -0.84149,1.196904 -1.15598,1.834171 -0.41271,0.822383 -0.81379,1.653027 -1.21304,2.482766 -0.95378,1.701241 -1.96165,3.389032 -3.22772,4.879668 -0.44473,0.487121 -0.90344,1.01319 -1.52805,1.266981 -0.22244,0.109601 -0.48073,-0.02527 -0.55397,-0.253733 -0.16124,-0.416621 -0.15801,-0.873564 -0.14625,-1.313614 0.007,-0.114387 0.0176,-0.325485 0.0376,-0.477232 0.20219,-1.839319 0.82914,-3.598097 1.50223,-5.310692 0.205,-0.485511 0.398,-0.986587 0.64811,-1.446202 2.53495,-1.901376 4.79969,-4.132123 6.97382,-6.42964 -0.38919,0.77247 -0.38937,1.80997 0.20216,2.481609 0.40082,0.502796 1.12097,0.610468 1.71286,0.44272 0.60124,-0.15045 1.10775,-0.556893 1.49024,-1.029941 0.52841,-0.779193 0.59707,-1.927934 -0.0354,-2.669016 -0.40315,-0.504177 -1.11025,-0.644655 -1.7199,-0.526571 -0.21958,0.03898 -0.43333,0.111746 -0.63242,0.211859 1.34474,-1.472004 2.52191,-3.133688 3.24992,-4.999844 0.35511,-0.953339 0.63046,-2.00655 0.38273,-3.020036 -0.2286,-0.900504 -1.06694,-1.531197 -1.93684,-1.751457 -1.16215,-0.29677 -2.37895,0.102309 -3.37289,0.70858 -1.55113,0.95617 -2.77259,2.349834 -3.85857,3.792866 -1.89688,2.594816 -3.48455,5.405874 -4.85854,8.308467 -1.10008,2.350505 -2.07002,4.765225 -2.85213,7.240569 -0.10881,0.295277 -0.14236,0.620985 -0.28364,0.900943 -0.76749,1.261068 -1.51564,2.545638 -2.46234,3.683606 -0.35117,0.38513 -0.73858,0.78939 -1.25109,0.943612 -0.12396,-0.0011 -0.0516,-0.238045 -0.0615,-0.331689 0.10006,-0.733269 0.42736,-1.430319 0.69644,-2.093455 0.74599,-1.751544 1.64135,-3.43495 2.5578,-5.100299 0.32969,-0.666895 0.70129,-1.37709 0.64428,-2.143736 -0.0381,-0.506547 -0.44531,-0.933579 -0.94206,-1.02009 -0.95874,-0.169879 -2.02891,0.03613 -2.73765,0.73883 -0.53194,0.498867 -0.8351,1.181108 -1.14425,1.810462 -0.40765,0.8124 -0.80371,1.633238 -1.20012,2.451648 -0.95009,1.61944 -1.96377,3.214526 -3.19325,4.638637 -0.54588,0.588828 -1.24357,1.126988 -2.0668,1.211684 -0.50958,0.0465 -0.93954,-0.348253 -1.19108,-0.752915 -0.4515,-0.796239 -0.41384,-1.763945 -0.26847,-2.638917 0.23929,-1.342892 0.81864,-2.621798 1.67208,-3.686214 0.60309,-0.769128 1.24297,-1.550813 2.09385,-2.056525 0.20314,-0.100851 0.44653,-0.225578 0.67386,-0.131259 -0.21188,0.566089 -0.70719,0.953159 -1.11052,1.380278 -0.41806,0.459423 -0.48791,1.216806 -0.0818,1.705972 0.40782,0.528559 1.17684,0.667243 1.77677,0.411356 0.73879,-0.273023 1.2644,-0.96221 1.43281,-1.719739 0.295,-1.007043 0.14583,-2.186797 -0.57662,-2.982039 -0.53425,-0.659768 -1.33468,-1.15217 -2.20503,-1.128411 -1.57936,-0.0071 -3.06976,0.735515 -4.26463,1.724546 -1.49997,1.254498 -2.59614,2.985294 -3.07845,4.881161 -0.82957,1.439111 -1.73639,2.855039 -2.89723,4.052244 -0.36865,0.348004 -0.74941,0.745099 -1.25497,0.87562 -0.12415,0.02088 -0.11033,-0.180348 -0.12714,-0.256913 5.3e-4,-0.735216 0.30911,-1.426239 0.59577,-2.089399 0.46541,-1.030242 1.07039,-1.987594 1.67581,-2.939179 0.59984,-1.00098 0.92973,-2.24709 0.56082,-3.388913 -0.42593,-1.376307 -1.85985,-2.343494 -3.29449,-2.2366 -0.61099,0.03169 -1.20657,0.213503 -1.75792,0.472882 2.19332,-1.765101 4.12828,-3.829785 5.9123,-6.001184 1.1422,-0.40708 2.30006,-0.989234 3.01576,-2.005203 0.41849,-0.608004 0.76113,-1.386567 0.52356,-2.129427 -0.0971,-0.281059 -0.28971,-0.523954 -0.53485,-0.690914 0.38033,-0.932678 0.70681,-1.96287 0.49399,-2.976563 -0.15051,-0.767479 -0.76204,-1.388173 -1.49909,-1.620427 -0.40885,-0.141939 -0.84362,-0.208185 -1.2759,-0.206336 z m 0.74621,2.13682 c 0.18877,-0.02737 0.28301,0.154043 0.2771,0.317183 0.0144,0.735084 -0.29146,1.428977 -0.57941,2.090423 -0.0337,0.144147 -0.1371,0.216476 -0.26552,0.27156 -0.61348,0.365268 -1.16538,1.019942 -1.09791,1.774523 0.0123,0.19014 -0.004,0.388753 -0.15069,0.527405 -0.18457,0.227798 -0.32097,0.508582 -0.55262,0.690152 -0.84164,0.537456 -1.84914,0.703943 -2.81617,0.872025 0.99131,-1.783263 2.02998,-3.556813 3.33542,-5.131869 0.46254,-0.522701 0.93976,-1.084014 1.59307,-1.368637 0.0817,-0.0311 0.16902,-0.04951 0.25673,-0.04277 z m 30.59606,0.597382 c 0.22613,-2.65e-4 0.16518,0.290706 0.16494,0.440489 -0.1258,0.938805 -0.56861,1.798891 -1.02474,2.616263 -0.35398,0.618429 -0.78812,1.248559 -1.20312,1.785845 -0.62399,0.797531 -1.31442,1.539679 -1.98334,2.299084 -1.0854,1.199443 -2.23118,2.416474 -3.45713,3.503705 -0.12287,0.118742 0.0672,-0.173366 0.0899,-0.244851 1.08281,-2.141077 2.12624,-4.311221 3.45342,-6.3158 0.82174,-1.234868 1.69059,-2.463069 2.802,-3.456868 0.33813,-0.268552 0.70658,-0.600956 1.15807,-0.627867 z m -13.86634,5.704559 c -0.59541,-0.01389 -1.04261,0.433758 -1.48395,0.769388 -1.17876,0.959159 -2.33045,1.961308 -3.35606,3.085158 -0.29558,0.360087 -0.66642,0.73752 -0.68833,1.229899 0.0151,0.499372 0.55822,0.797722 1.01389,0.76843 0.74931,-0.05037 1.40973,-0.463259 2.03631,-0.842648 1.29823,-0.828723 2.47739,-1.825215 3.68272,-2.779355 0.42574,-0.410843 0.37848,-1.115058 0.0341,-1.560854 -0.28045,-0.396954 -0.74668,-0.671235 -1.23865,-0.670018 z m -29.91755,1.563214 c 0.93919,0.167643 1.88403,0.305605 2.83394,0.395841 -1.65276,3.335173 -3.116962,6.761096 -4.496402,10.217046 -0.834504,1.520646 -1.72208,3.023365 -2.806806,4.381006 -0.376954,0.428715 -0.777618,0.880123 -1.315392,1.103831 -0.110077,-0.01796 -0.06156,-0.250677 -0.07767,-0.355106 0.04539,-0.884311 0.34902,-1.727353 0.583825,-2.573901 0.958429,-3.115915 2.142349,-6.157401 3.386936,-9.168712 0.561454,-1.351698 1.143355,-2.695 1.751523,-4.02636 0.04668,0.0088 0.09336,0.01757 0.140042,0.02635 z m 8.46667,0.607714 c -0.87515,0.950981 -1.78454,1.872083 -2.75022,2.731616 0.43876,-0.965541 0.88489,-1.927899 1.3534,-2.87941 0.56323,-0.03815 1.12535,-0.09408 1.68465,-0.17105 -0.0959,0.106283 -0.19189,0.212563 -0.28783,0.318844 z m -24.087937,6.224426 c 0.46111,0.04933 0.662469,0.541996 0.750194,0.937334 0.0217,0.195514 0.116094,0.415499 0.03437,0.602025 -0.390417,0.758235 -0.808172,1.507731 -1.108604,2.306704 -0.841113,1.364699 -1.655895,2.764049 -2.736758,3.957595 -0.399367,0.411453 -0.814305,0.858713 -1.368909,1.051099 -0.210473,0.08926 -0.263252,-0.188992 -0.315253,-0.328935 -0.225103,-0.858007 -0.05106,-1.758304 0.148338,-2.60422 0.351825,-1.347493 0.915297,-2.653128 1.768182,-3.761658 0.581281,-0.770813 1.22928,-1.543349 2.100204,-1.995035 0.225163,-0.108696 0.475181,-0.190862 0.728234,-0.164909 z m 66.850697,1.191143 c 0.55477,0.02209 1.01856,0.479825 1.10591,1.018538 0.13109,0.649867 0.0112,1.344596 -0.18142,1.957506 -0.75498,-0.499398 -1.88227,-0.21059 -2.33464,0.567026 -0.44021,0.719876 -0.44969,1.631236 -0.23419,2.426592 0.0728,0.24172 0.18226,0.472239 0.32814,0.678511 -0.53603,0.501464 -1.13439,1.014872 -1.87482,1.161168 -0.3534,0.07562 -0.7388,-0.108294 -0.8695,-0.452527 -0.3554,-0.797412 -0.31165,-1.708904 -0.17074,-2.551745 0.2909,-1.571691 1.12127,-3.0613 2.36936,-4.070747 0.53069,-0.408667 1.17097,-0.7679 1.8619,-0.734322 z" />
    <g
       aria-label="Nathcílios"
       transform="matrix(0.26458333,0,0,0.26458333,24.247901,-7.7290108)"
       id="text3727"
       style="font-size:192px;line-height:1.25;white-space:pre;shape-inside:url(#rect3729);fill:#000000">
      <path
         d="m 253.1947,87.952188 h -1.536 c -33.6,1.728 -48.96,42.624002 -61.248,66.624002 -16.128,31.68 -26.496,53.76 -47.04,66.816 6.144,-8.256 17.088,-33.408 19.008,-69.312 1.344,-25.152 2.88,-40.512 8.64,-49.92 0.576,0 13.632,-2.880003 11.712,-7.104002 -2.112,-4.608 -15.936,2.879999 -19.584,4.607999 -16.704,2.496003 -35.904,1.920003 -47.424,1.920003 -31.679997,0.384 -53.951997,13.056 -53.951997,38.016 0,24 31.68,18.624 41.279997,11.904 7.296,-5.184 12.096,-11.712 12.672,-20.544 0.384,-6.144 -4.032,-18.432 -4.8,-12.672 -1.344,10.752 -2.496,21.12 -12.287997,29.568 -11.712,10.176 -32.64,9.216 -32.256,-8.256 0.384,-21.696 19.584,-34.368 48.959997,-34.752 14.208,-0.192 28.608,0.384 40.704,-0.96 -11.712,8.256 -23.616,24.384 -38.784,62.592 -13.056,33.024 -27.647997,59.136 -53.183997,61.632 -11.52,1.152 -21.312,-4.032 -24.576,-13.824 -1.728,-4.992 -3.072,-12.48 2.688,-19.008 5.184,-5.952 8.64,-9.216 4.8,-13.248 -2.112,-2.112 -9.984,-0.384 -13.056,12.288 -1.92,7.872 -0.96,14.208 0.768,19.776 4.032,13.056 16.32,19.008 29.184,18.24 33.6,-2.112 48.191997,-38.016 59.519997,-66.432 17.088,-43.008 24.768,-52.608 41.664,-62.976 -9.792,11.712 -13.632,30.72 -14.976,43.392 -3.84,35.136 -0.576,42.816 -11.328,78.528 -0.384,1.344 0.576,1.728 2.112,1.536 26.688,-8.832 44.928,-50.496 55.872,-72.576 20.352,-41.28 34.176,-61.632003 54.72,-61.440002 11.712,0.192 3.648,10.560002 14.592,9.408002 6.144,-0.576 3.456,-13.824002 -12.864,-13.824002 z"
         style="font-family:Madina;-inkscape-font-specification:Madina;fill:#000000"
         id="path65651" />
      <path
         d="m 233.41834,167.63219 c -0.192,-4.032 -4.032,-7.872 -8.064,-8.448 -14.208,-2.304 -25.152,10.368 -28.416,23.808 -1.92,8.064 0.192,22.848 9.984,22.656 6.912,-0.192 13.056,-7.872 17.472,-15.36 -0.192,2.688 -0.192,4.992 0.384,7.488 1.92,9.024 10.752,10.176 18.048,3.456 6.144,-5.76 11.136,-15.36 15.936,-24.192 1.344,-2.496 1.728,-3.264 0.576,-3.648 -1.152,-0.384 -1.152,-0.576 -2.496,1.92 -1.536,3.072 -8.064,14.784 -13.056,20.544 -5.184,5.952 -11.136,9.408 -9.408,-1.728 0.384,-3.072 2.496,-10.368 9.216,-20.736 2.496,-3.648 7.104,-11.52 2.304,-12.48 -9.024,-1.92 -10.368,3.264 -12.48,6.72 z m -5.568,-3.456 c 2.88,1.536 3.264,5.952 3.264,7.488 -1.728,3.456 -3.456,6.336 -4.416,9.216 -1.728,2.88 -3.84,6.336 -6.336,9.984 -6.144,8.832 -11.904,12.864 -13.824,8.64 -2.688,-5.76 1.344,-18.048 5.184,-24 5.952,-9.216 12.096,-13.44 16.128,-11.328 z"
         style="font-family:Madina;-inkscape-font-specification:Madina;fill:#000000"
         id="path65653" />
      <path
         d="m 227.46626,139.79219 c 0.768,-6.144 4.224,-9.216 13.632,-9.984 9.6,-0.768 19.776,2.304 31.296,5.184 -11.136,24.192 -21.504,53.376 -20.544,62.016 1.152,9.024 10.944,12.672 17.664,5.184 5.76,-6.336 10.368,-14.976 15.552,-24.768 1.344,-2.496 1.728,-4.032 0.768,-4.224 -0.576,-0.192 -1.152,-0.384 -2.304,1.92 -4.032,8.064 -8.64,15.936 -13.056,21.696 -5.376,6.912 -11.52,9.408 -9.024,-1.536 3.456,-14.208 13.824,-40.32 21.888,-57.792 10.944,2.112 23.232,3.456 37.824,0.96 3.648,-0.576 13.824,-2.88 17.856,-8.64 1.92,-2.688 3.456,-6.912 -0.384,-8.448 -3.456,-1.536 -8.256,2.304 -8.064,5.184 0.192,2.496 -0.384,7.296 -11.328,9.6 -12.48,2.688 -24,1.344 -34.752,-0.96 2.688,-5.76 4.992,-10.368 6.528,-13.056 2.688,-4.416 5.184,-8.448 0.96,-9.6 -6.336,-1.728 -8.832,0.576 -10.752,4.224 -2.496,4.608 -4.992,10.176 -7.68,15.744 -8.448,-2.112 -16.512,-4.416 -24,-4.992 -13.632,-1.152 -19.584,0.384 -26.112,5.376 -3.84,2.88 -4.8,6.528 -3.264,9.408 1.344,2.688 6.72,2.112 7.296,-2.496 z"
         style="font-family:Madina;-inkscape-font-specification:Madina;fill:#000000"
         id="path65655" />
      <path
         d="m 306.56999,125.77619 c -11.136,17.664 -25.92,53.376 -32.064,71.424 -2.496,7.488 0.192,9.408 2.112,9.408 6.528,0.192 6.912,-1.728 10.944,-12.864 1.152,-3.072 2.688,-7.68 4.8,-12.864 6.528,-10.752 23.04,-21.12 22.656,-12.288 -0.192,5.76 -11.136,17.088 -11.136,26.688 0,9.6 8.256,13.632 15.552,9.408 7.68,-4.608 16.128,-19.968 19.008,-25.728 2.112,-4.224 2.688,-5.376 1.152,-5.76 -1.344,-0.384 -2.304,1.92 -3.648,4.8 -8.064,15.744 -17.28,26.112 -21.12,24.384 -3.84,-1.92 0.384,-12.096 6.72,-21.696 5.952,-9.024 2.496,-15.936 -2.88,-18.432 -4.8,-2.304 -12.48,-0.96 -22.656,9.984 0.96,-2.496 2.112,-5.184 3.264,-7.872 8.064,-5.568 16.704,-13.056 27.456,-25.92 6.912,-8.256 22.848,-31.296 7.872,-34.176 -8.64,-1.728 -18.432,6.144 -28.032,21.504 z m -5.184,33.6 c 3.264,-7.488 6.528,-14.592 9.216,-19.968 7.488,-14.592 17.856,-31.104 24,-31.296 7.68,-0.192 0.96,15.168 -8.256,26.304 -11.136,13.632 -19.584,20.928 -24.96,24.96 z"
         style="font-family:Madina;-inkscape-font-specification:Madina;fill:#000000"
         id="path65657" />
      <path
         d="m 363.40165,164.17619 c 2.304,1.536 -0.768,5.184 -3.456,7.68 -2.304,2.112 -1.344,4.992 1.344,5.568 2.112,0.384 4.992,-1.152 6.144,-4.032 1.728,-4.608 0.768,-8.064 -0.768,-10.176 -1.92,-2.496 -4.032,-4.032 -6.72,-4.224 -9.792,-0.576 -22.464,8.832 -26.304,22.848 -2.112,7.488 -0.96,19.584 8.064,23.616 8.448,3.648 15.168,0 21.312,-6.912 4.8,-5.376 11.136,-16.512 13.632,-21.12 1.152,-2.112 2.112,-3.84 0.96,-4.224 -0.96,-0.384 -1.728,0.192 -2.496,1.728 -1.728,3.648 -8.448,15.168 -14.4,22.08 -4.224,4.992 -9.408,6.72 -12.288,5.376 -8.832,-4.224 -5.376,-19.584 0.192,-27.456 4.416,-6.336 10.944,-13.248 14.784,-10.752 z"
         style="font-family:Madina;-inkscape-font-specification:Madina;fill:#000000"
         id="path65659" />
      <path
         d="m 401.03349,141.13619 c 2.496,-1.92 -1.344,-6.912 -4.8,-4.608 -3.456,2.304 -18.432,15.168 -16.896,16.896 3.072,3.648 18.048,-9.6 21.696,-12.288 z m -23.232,27.84 c -3.072,6.336 -11.328,21.504 -9.792,28.032 2.112,8.832 9.984,11.904 17.28,5.184 5.76,-5.184 12.672,-18.624 16.32,-25.152 1.344,-2.496 1.728,-3.648 0.576,-3.84 -1.536,-0.384 -1.536,0.576 -3.648,4.224 -3.264,5.568 -9.216,15.936 -13.248,20.544 -5.184,5.952 -10.56,6.144 -7.68,-2.496 0.96,-3.072 4.608,-11.712 10.368,-22.08 2.112,-3.84 6.336,-11.136 1.152,-11.712 -7.104,-0.768 -9.6,3.648 -11.328,7.296 z"
         style="font-family:Madina;-inkscape-font-specification:Madina;fill:#000000"
         id="path65661" />
      <path
         d="m 423.11343,124.24019 c -11.904,17.088 -20.736,36.672 -26.304,53.376 -6.72,20.352 -2.304,28.224 6.144,30.336 11.712,2.88 23.04,-17.472 28.992,-29.568 1.92,-3.84 2.304,-4.608 1.152,-5.184 -1.344,-0.768 -1.92,1.152 -4.032,4.992 -6.528,12.096 -18.624,31.296 -24,24.768 -2.304,-2.88 -1.536,-11.712 1.92,-21.888 1.344,-4.032 3.072,-8.64 5.376,-13.44 9.024,-6.72 17.856,-14.976 29.952,-28.032 11.52,-12.288 16.704,-26.112 12.672,-31.104 -3.84,-4.8 -15.36,-7.872 -31.872,15.744 z m -7.488,36.864 c 3.264,-6.72 6.72,-13.632 10.368,-20.736 8.832,-17.28 21.12,-33.408 26.304,-29.376 2.88,2.304 -1.536,13.632 -10.368,23.808 -15.36,17.664 -18.24,18.816 -26.304,26.304 z"
         style="font-family:Madina;-inkscape-font-specification:Madina;fill:#000000"
         id="path65663" />
      <path
         d="m 450.5693,151.69619 0.96,-0.96 c 1.728,-2.496 1.728,-5.76 0.192,-7.68 l -0.768,-0.768 c -1.92,-1.344 -5.376,-0.96 -7.488,1.152 -0.192,0.192 -0.576,0.96 -0.768,1.152 -1.728,2.496 -1.728,5.952 -0.192,7.872 l 0.768,0.768 c 1.92,1.344 5.184,0.576 7.296,-1.536 z m -17.088,17.28 c -3.072,6.336 -11.328,21.504 -9.792,28.032 2.112,8.832 9.984,11.904 17.28,5.184 5.76,-5.184 12.672,-18.624 16.32,-25.152 1.344,-2.496 1.728,-3.648 0.576,-3.84 -1.536,-0.384 -1.536,0.576 -3.648,4.224 -3.264,5.568 -9.216,15.936 -13.248,20.544 -5.184,5.952 -10.56,6.144 -7.68,-2.496 0.96,-3.072 4.608,-11.712 10.368,-22.08 2.112,-3.84 6.336,-11.136 1.152,-11.712 -7.104,-0.768 -9.6,3.648 -11.328,7.296 z"
         style="font-family:Madina;-inkscape-font-specification:Madina;fill:#000000"
         id="path65665" />
      <path
         d="m 477.83324,182.60819 c -2.688,0.576 -3.648,3.264 -3.84,5.184 -0.192,2.112 0,5.76 2.496,7.488 -4.032,4.416 -9.792,8.448 -13.632,5.376 -3.648,-3.072 -4.032,-14.976 2.88,-24.384 4.992,-6.912 12.48,-10.368 16.896,-6.528 4.224,3.648 2.496,12.288 -1.92,19.968 0.192,-0.768 0.768,-1.728 1.152,-2.88 1.152,-3.456 -1.536,-4.8 -4.032,-4.224 z m -3.648,-21.312 c -6.72,0 -13.248,4.608 -17.856,10.368 -10.56,12.864 -7.68,30.528 -0.192,33.984 5.952,2.688 14.592,1.536 23.808,-9.024 7.872,1.152 15.552,-8.064 18.24,-12.48 3.84,-6.144 6.912,-10.944 4.224,-10.944 -1.536,0 -0.384,0.96 -7.104,10.56 -3.264,4.608 -8.64,10.176 -12.672,9.6 6.72,-9.408 8.064,-21.12 2.688,-26.88 -3.84,-4.032 -7.104,-5.184 -11.136,-5.184 z"
         style="font-family:Madina;-inkscape-font-specification:Madina;fill:#000000"
         id="path65667" />
      <path
         d="m 523.52899,150.54419 c -0.384,0 -0.768,0.192 -1.152,0.192 -0.768,0.192 -6.72,2.304 -9.6,5.184 -6.912,6.72 -9.216,14.208 -13.056,20.928 -0.576,1.152 -1.92,3.648 -1.152,4.032 1.344,0.768 2.112,-0.576 2.88,-2.112 2.112,-3.84 6.528,-12.096 6.144,-10.752 -1.152,4.032 -1.536,11.52 3.072,17.664 4.032,5.376 3.264,12.864 -1.536,15.552 -3.84,2.112 -10.752,1.728 -11.328,-2.496 -0.576,-3.264 2.688,-5.952 1.344,-6.912 -1.344,-0.768 -5.568,3.072 -5.568,7.68 0,5.376 3.456,8.832 9.216,10.176 10.368,2.304 17.28,-4.416 22.848,-10.56 4.608,-4.992 12.48,-17.28 15.744,-24 0.384,-0.96 0.192,-1.728 -0.576,-1.92 -0.768,-0.192 -1.344,0.192 -1.536,0.768 -2.304,4.416 -7.68,14.208 -13.248,20.736 -0.576,0.576 -0.96,1.152 -1.536,1.728 0,-0.384 -0.192,-1.536 -0.192,-1.92 -0.384,-10.752 -11.136,-16.512 -8.448,-27.264 2.112,-8.064 7.104,-12.48 7.488,-12.672 1.344,-0.768 2.304,-2.112 2.112,-2.88 -0.192,-0.96 -1.152,-1.152 -1.92,-1.152 z"
         style="font-family:Madina;-inkscape-font-specification:Madina;fill:#000000"
         id="path65669" />
    </g>
  </g>
</svg>
